<svg xmlns="http://www.w3.org/2000/svg" xmlns:xlink="http://www.w3.org/1999/xlink" width="500"
    zoomAndPan="magnify" viewBox="0 0 375 374.999991" height="500"
    preserveAspectRatio="xMidYMid meet" version="1.0">
    <defs>
        <g />
        <clipPath id="4388ecb4b7">
            <path
                d="M 69.179688 141.8125 L 97 141.8125 L 97 230.3125 L 69.179688 230.3125 Z M 69.179688 141.8125 "
                clip-rule="nonzero" />
        </clipPath>
        <clipPath id="334a22718c">
            <path
                d="M 279 141.8125 L 305.78125 141.8125 L 305.78125 230.3125 L 279 230.3125 Z M 279 141.8125 "
                clip-rule="nonzero" />
        </clipPath>
    </defs>
    <g fill="#14bc84" fill-opacity="1">
        <g transform="translate(128.030219, 226.071814)">
            <g>
                <path
                    d="M 2.710938 0 L 26.832031 0 C 41.359375 0 49.433594 -6.882812 49.433594 -19.1875 C 49.433594 -31.546875 41.359375 -38.429688 26.832031 -38.429688 L 2.710938 -38.429688 Z M 10.136719 -5.691406 L 10.136719 -32.632812 L 26.179688 -32.632812 C 36.371094 -32.632812 42.0625 -27.859375 42.0625 -19.1875 C 42.0625 -10.515625 36.371094 -5.691406 26.179688 -5.691406 Z M 10.136719 -5.691406 " />
            </g>
        </g>
    </g>
    <g fill="#14bc84" fill-opacity="1">
        <g transform="translate(179.522011, 226.071814)">
            <g>
                <path
                    d="M 2.710938 0 L 41.464844 0 L 41.464844 -5.476562 L 10.027344 -5.476562 L 10.027344 -17.238281 L 38.757812 -17.238281 L 38.757812 -22.277344 L 10.027344 -22.277344 L 10.027344 -32.902344 L 40.925781 -32.902344 L 40.925781 -38.429688 L 2.710938 -38.429688 Z M 2.710938 0 " />
            </g>
        </g>
    </g>
    <g fill="#14bc84" fill-opacity="1">
        <g transform="translate(222.070493, 226.071814)">
            <g>
                <path
                    d="M 19.894531 0 L 28.292969 0 L 48.242188 -38.429688 L 40.164062 -38.429688 L 24.175781 -7.046875 L 24.066406 -7.046875 L 8.023438 -38.429688 L 0 -38.429688 Z M 19.894531 0 " />
            </g>
        </g>
    </g>
    <g fill="#ffffff" fill-opacity="1">
        <g transform="translate(149.220094, 177.397181)">
            <g>
                <path
                    d="M 35.71875 0 L 35.609375 -18.875 L 26.453125 -3.515625 L 21.984375 -3.515625 L 12.875 -18.359375 L 12.875 0 L 3.5625 0 L 3.5625 -35.609375 L 11.859375 -35.609375 L 24.375 -15.0625 L 36.578125 -35.609375 L 44.875 -35.609375 L 44.96875 0 Z M 35.71875 0 " />
            </g>
        </g>
    </g>
    <g fill="#ffffff" fill-opacity="1">
        <g transform="translate(193.113881, 177.397181)">
            <g>
                <path
                    d="M 13.640625 -27.828125 L 13.640625 -20 L 29.359375 -20 L 29.359375 -12.203125 L 13.640625 -12.203125 L 13.640625 0 L 3.5625 0 L 3.5625 -35.609375 L 31.484375 -35.609375 L 31.484375 -27.828125 Z M 13.640625 -27.828125 " />
            </g>
        </g>
    </g>
    <g clip-path="url(#4388ecb4b7)">
        <path fill="#14bc84"
            d="M 93.828125 151.644531 L 96.289062 151.644531 L 96.289062 141.8125 L 93.828125 141.8125 C 85.664062 141.8125 79.050781 148.414062 79.050781 156.5625 L 79.050781 173.769531 C 79.050781 175.316406 78.320312 176.773438 77.078125 177.703125 L 71.167969 182.128906 C 69.984375 183.011719 69.261719 184.382812 69.203125 185.855469 C 69.140625 187.332031 69.746094 188.753906 70.851562 189.734375 L 77.394531 195.539062 C 78.449219 196.472656 79.050781 197.8125 79.050781 199.214844 L 79.050781 215.5625 C 79.050781 223.707031 85.664062 230.3125 93.828125 230.3125 L 96.289062 230.3125 L 96.289062 220.476562 L 93.828125 220.476562 C 91.105469 220.476562 88.902344 218.277344 88.902344 215.5625 L 88.902344 199.214844 C 88.902344 195.003906 87.097656 190.988281 83.941406 188.191406 L 81.902344 186.382812 L 82.988281 185.570312 C 86.710938 182.785156 88.902344 178.410156 88.902344 173.769531 L 88.902344 156.5625 C 88.902344 153.84375 91.105469 151.644531 93.828125 151.644531 Z M 93.828125 151.644531 "
            fill-opacity="1" fill-rule="evenodd" />
    </g>
    <g clip-path="url(#334a22718c)">
        <path fill="#14bc84"
            d="M 282 151.644531 L 279.539062 151.644531 L 279.539062 141.8125 L 282 141.8125 C 290.164062 141.8125 296.777344 148.414062 296.777344 156.5625 L 296.777344 173.769531 C 296.777344 175.316406 297.507812 176.773438 298.75 177.703125 L 304.660156 182.128906 C 305.84375 183.011719 306.566406 184.382812 306.625 185.855469 C 306.6875 187.332031 306.082031 188.753906 304.976562 189.734375 L 298.433594 195.539062 C 297.378906 196.472656 296.777344 197.8125 296.777344 199.214844 L 296.777344 215.5625 C 296.777344 223.707031 290.164062 230.3125 282 230.3125 L 279.539062 230.3125 L 279.539062 220.476562 L 282 220.476562 C 284.722656 220.476562 286.925781 218.277344 286.925781 215.5625 L 286.925781 199.214844 C 286.925781 195.003906 288.730469 190.988281 291.886719 188.191406 L 293.925781 186.382812 L 292.835938 185.570312 C 289.117188 182.785156 286.925781 178.410156 286.925781 173.769531 L 286.925781 156.5625 C 286.925781 153.84375 284.722656 151.644531 282 151.644531 Z M 282 151.644531 "
            fill-opacity="1" fill-rule="evenodd" />
    </g>
</svg>